<?xml version="1.0" standalone="no"?><svg xmlns="http://www.w3.org/2000/svg" viewBox="0 0 1440 320"><path fill="#a999a0" fill-opacity="1" d="M0,192L34.3,197.3C68.6,203,137,213,206,197.3C274.3,181,343,139,411,138.7C480,139,549,181,617,197.3C685.7,213,754,203,823,176C891.4,149,960,107,1029,74.7C1097.1,43,1166,21,1234,16C1302.9,11,1371,21,1406,26.7L1440,32L1440,320L1405.7,320C1371.4,320,1303,320,1234,320C1165.7,320,1097,320,1029,320C960,320,891,320,823,320C754.3,320,686,320,617,320C548.6,320,480,320,411,320C342.9,320,274,320,206,320C137.1,320,69,320,34,320L0,320Z"></path></svg>